<?xml version="1.0" standalone="no"?>
<!DOCTYPE svg PUBLIC "-//W3C//DTD SVG 20010904//EN"
 "http://www.w3.org/TR/2001/REC-SVG-20010904/DTD/svg10.dtd">
<svg version="1.0" xmlns="http://www.w3.org/2000/svg"
 width="100.000000pt" height="100.000000pt" viewBox="0 0 100.000000 100.000000"
 preserveAspectRatio="xMidYMid meet">
<metadata>
Created by potrace 1.14, written by Peter Selinger 2001-2017
</metadata>
<g transform="translate(0.000000,100.000000) scale(0.100000,-0.100000)"
fill="#000000" stroke="none">
<path d="M482 968 c-16 -16 -15 -43 3 -58 19 -16 20 -50 1 -50 -18 0 -63 -36
-77 -61 -10 -19 -7 -20 53 -16 34 2 79 0 100 -3 21 -4 41 -3 44 2 9 15 -23 55
-56 69 -34 16 -38 34 -13 61 33 37 -20 91 -55 56z"/>
<path d="M415 760 c-209 -34 -330 -178 -320 -383 12 -253 242 -395 538 -332
122 26 214 94 258 190 50 111 39 278 -24 370 -84 121 -268 184 -452 155z m243
-180 c56 -31 83 -85 87 -168 6 -160 -65 -226 -240 -225 -129 1 -184 29 -220
115 -18 46 -19 140 -1 191 26 72 71 103 164 115 78 10 162 -1 210 -28z"/>
<path d="M390 447 c-54 -27 -36 -109 23 -109 38 0 57 19 57 57 0 47 -39 72
-80 52z m50 -36 c12 -23 -12 -54 -35 -45 -23 9 -28 37 -9 51 24 18 31 16 44
-6z"/>
<path d="M594 449 c-36 -13 -50 -48 -33 -81 22 -41 91 -38 105 4 15 49 -27 94
-72 77z m30 -25 c21 -8 21 -50 0 -58 -32 -12 -57 27 -32 52 14 14 12 14 32 6z"/>
<path d="M39 454 c-19 -23 -14 -105 7 -121 10 -7 21 -13 25 -13 3 0 6 34 6 75
-1 77 -10 92 -38 59z"/>
<path d="M938 395 c2 -41 7 -75 12 -75 21 0 40 34 40 71 0 49 -15 79 -38 79
-15 0 -17 -9 -14 -75z"/>
</g>
</svg>
