<svg id="svg" version="1.1" xmlns="http://www.w3.org/2000/svg" xmlns:xlink="http://www.w3.org/1999/xlink" width="400" height="145.45454545454547" viewBox="0, 0, 400,145.45454545454547"><g id="svgg"><path id="path0" d="M140.998 7.770 C 136.503 10.560,136.727 7.151,136.732 72.839 C 136.737 130.812,136.782 132.795,138.143 134.860 C 140.895 139.036,137.999 138.856,202.909 138.873 C 268.282 138.889,265.137 139.094,268.160 134.609 L 269.818 132.149 269.818 72.727 L 269.818 13.306 268.160 10.845 C 265.138 6.361,268.280 6.566,202.909 6.576 C 148.717 6.583,142.724 6.699,140.998 7.770 M7.273 55.273 L 7.273 58.909 14.182 58.909 L 21.091 58.909 21.091 77.493 L 21.091 96.076 24.909 95.856 L 28.727 95.636 28.727 77.272 L 28.727 58.909 35.818 58.909 L 42.909 58.909 42.909 55.273 L 42.909 51.636 25.091 51.636 L 7.273 51.636 7.273 55.273 M48.898 73.636 L 49.091 95.636 52.909 95.856 L 56.727 96.076 56.727 87.282 L 56.727 78.489 62.983 78.699 L 69.238 78.909 73.058 87.273 L 76.879 95.636 80.985 95.854 C 85.795 96.110,85.682 96.401,82.909 90.909 C 81.709 88.532,79.935 84.795,78.966 82.604 L 77.205 78.622 79.729 77.133 C 83.116 75.134,84.364 71.848,84.363 64.932 C 84.360 52.947,82.231 51.639,62.717 51.637 L 48.706 51.636 48.898 73.636 M93.818 71.692 L 93.818 91.748 95.944 93.874 L 98.070 96.000 112.727 96.000 L 127.385 96.000 129.510 93.874 L 131.636 91.748 131.636 71.692 L 131.636 51.636 128.000 51.636 L 124.364 51.636 124.364 70.182 L 124.364 88.727 112.727 88.727 L 101.091 88.727 101.091 70.182 L 101.091 51.636 97.455 51.636 L 93.818 51.636 93.818 71.692 M274.182 73.818 L 274.182 96.000 289.091 96.000 L 304.000 96.000 304.000 92.364 L 304.000 88.727 293.091 88.727 L 282.182 88.727 282.182 70.182 L 282.182 51.636 278.182 51.636 L 274.182 51.636 274.182 73.818 M310.545 73.818 L 310.545 96.000 314.182 96.000 L 317.818 96.000 317.818 88.000 L 317.818 80.000 327.455 79.959 C 343.478 79.891,345.455 78.297,345.455 65.445 C 345.455 52.591,343.973 51.636,324.023 51.636 L 310.545 51.636 310.545 73.818 M352.898 73.636 L 353.091 95.636 356.909 95.856 L 360.727 96.076 360.727 86.583 L 360.727 77.091 372.364 77.091 L 384.000 77.091 384.000 86.545 L 384.000 96.000 387.636 96.000 L 391.273 96.000 391.273 73.818 L 391.273 51.636 387.636 51.636 L 384.000 51.636 384.000 60.727 L 384.000 69.818 372.364 69.818 L 360.727 69.818 360.727 60.727 L 360.727 51.636 356.717 51.636 L 352.706 51.636 352.898 73.636 M216.727 53.637 C 219.105 54.826,219.297 55.184,219.645 59.091 L 220.017 63.273 217.281 63.273 C 214.574 63.273,214.545 63.242,214.545 60.364 L 214.545 57.455 203.636 57.455 L 192.727 57.455 192.727 64.364 L 192.727 71.273 204.727 71.273 C 220.235 71.273,219.636 70.805,219.636 82.909 C 219.636 95.125,220.448 94.545,203.326 94.545 L 189.924 94.545 188.416 92.629 C 185.724 89.206,186.293 84.595,189.455 84.226 C 191.969 83.932,192.000 83.962,192.000 86.691 L 192.000 89.455 203.273 89.455 L 214.545 89.455 214.545 82.909 L 214.545 76.364 202.876 76.364 C 187.558 76.364,187.636 76.423,187.636 64.820 C 187.636 55.475,187.853 54.701,190.836 53.402 C 194.456 51.827,213.448 51.999,216.727 53.637 M177.455 55.636 L 177.455 58.182 161.818 58.182 L 146.182 58.182 146.182 55.636 L 146.182 53.091 161.818 53.091 L 177.455 53.091 177.455 55.636 M261.229 55.636 L 260.932 58.182 245.739 58.182 L 230.545 58.182 230.545 55.636 L 230.545 53.091 246.036 53.091 L 261.526 53.091 261.229 55.636 M76.218 59.782 C 76.711 60.275,77.091 62.637,77.091 65.211 C 77.091 71.071,76.705 71.273,65.502 71.273 L 56.727 71.273 56.727 65.091 L 56.727 58.909 66.036 58.909 C 72.307 58.909,75.630 59.194,76.218 59.782 M337.309 59.782 C 337.828 60.300,338.182 62.798,338.182 65.938 C 338.182 72.629,338.014 72.727,326.593 72.727 L 317.818 72.727 317.818 65.818 L 317.818 58.909 327.127 58.909 C 333.398 58.909,336.721 59.194,337.309 59.782 M176.727 73.818 L 176.727 76.364 161.455 76.364 L 146.182 76.364 146.182 73.818 L 146.182 71.273 161.455 71.273 L 176.727 71.273 176.727 73.818 M261.091 73.818 L 261.091 76.364 245.818 76.364 L 230.545 76.364 230.545 73.818 L 230.545 71.273 245.818 71.273 L 261.091 71.273 261.091 73.818 M177.455 92.000 L 177.455 94.545 161.818 94.545 L 146.182 94.545 146.182 92.000 L 146.182 89.455 161.818 89.455 L 177.455 89.455 177.455 92.000 M261.455 92.000 L 261.455 94.545 246.000 94.545 L 230.545 94.545 230.545 92.000 L 230.545 89.455 246.000 89.455 L 261.455 89.455 261.455 92.000 " stroke="none" fill="#000000" fill-rule="evenodd"></path></g></svg>